<mxfile host="65bd71144e">
    <diagram id="JNpqTJ1qsB-xh7_5ck8f" name="Page-1">
        <mxGraphModel dx="2210" dy="1607" grid="1" gridSize="10" guides="1" tooltips="1" connect="1" arrows="1" fold="1" page="0" pageScale="1" pageWidth="850" pageHeight="1100" math="0" shadow="0">
            <root>
                <mxCell id="0"/>
                <mxCell id="1" parent="0"/>
                <mxCell id="12" value="" style="edgeStyle=none;html=1;" parent="1" source="2" target="7" edge="1">
                    <mxGeometry relative="1" as="geometry"/>
                </mxCell>
                <mxCell id="17" style="edgeStyle=none;html=1;exitX=0.5;exitY=0;exitDx=0;exitDy=0;entryX=0.25;entryY=1;entryDx=0;entryDy=0;" parent="1" source="2" target="14" edge="1">
                    <mxGeometry relative="1" as="geometry"/>
                </mxCell>
                <mxCell id="2" value="ActionLog" style="rounded=1;whiteSpace=wrap;html=1;strokeColor=#F3652B;fillColor=#1E1E1E;" parent="1" vertex="1">
                    <mxGeometry x="380" y="200" width="120" height="60" as="geometry"/>
                </mxCell>
                <mxCell id="11" style="edgeStyle=none;html=1;exitX=0.5;exitY=1;exitDx=0;exitDy=0;entryX=0;entryY=0.5;entryDx=0;entryDy=0;" parent="1" source="3" target="7" edge="1">
                    <mxGeometry relative="1" as="geometry"/>
                </mxCell>
                <mxCell id="16" style="edgeStyle=none;html=1;exitX=0.5;exitY=0;exitDx=0;exitDy=0;entryX=0.5;entryY=1;entryDx=0;entryDy=0;" parent="1" source="3" target="15" edge="1">
                    <mxGeometry relative="1" as="geometry"/>
                </mxCell>
                <mxCell id="3" value="ErrorLog" style="rounded=1;whiteSpace=wrap;html=1;strokeColor=#F3652B;fillColor=#1E1E1E;" parent="1" vertex="1">
                    <mxGeometry x="200" y="200" width="120" height="60" as="geometry"/>
                </mxCell>
                <mxCell id="13" style="edgeStyle=none;html=1;exitX=0.5;exitY=1;exitDx=0;exitDy=0;entryX=1;entryY=0.5;entryDx=0;entryDy=0;" parent="1" source="4" target="7" edge="1">
                    <mxGeometry relative="1" as="geometry"/>
                </mxCell>
                <mxCell id="18" style="edgeStyle=none;html=1;exitX=0.5;exitY=0;exitDx=0;exitDy=0;entryX=0.75;entryY=1;entryDx=0;entryDy=0;" parent="1" source="4" target="14" edge="1">
                    <mxGeometry relative="1" as="geometry"/>
                </mxCell>
                <mxCell id="4" value="ScreenLog" style="rounded=1;whiteSpace=wrap;html=1;strokeColor=#F3652B;fillColor=#1E1E1E;" parent="1" vertex="1">
                    <mxGeometry x="560" y="200" width="120" height="60" as="geometry"/>
                </mxCell>
                <mxCell id="50" style="edgeStyle=none;html=1;exitX=0.5;exitY=0;exitDx=0;exitDy=0;entryX=0.5;entryY=1;entryDx=0;entryDy=0;" parent="1" source="6" target="8" edge="1">
                    <mxGeometry relative="1" as="geometry">
                        <mxPoint x="440" y="620" as="targetPoint"/>
                    </mxGeometry>
                </mxCell>
                <mxCell id="6" value="HomeView" style="rounded=0;whiteSpace=wrap;html=1;strokeColor=#F3652B;fillColor=#1E1E1E;" parent="1" vertex="1">
                    <mxGeometry x="380" y="670" width="120" height="60" as="geometry"/>
                </mxCell>
                <mxCell id="10" style="edgeStyle=none;html=1;exitX=0.5;exitY=1;exitDx=0;exitDy=0;entryX=0.5;entryY=0;entryDx=0;entryDy=0;" parent="1" source="7" target="8" edge="1">
                    <mxGeometry relative="1" as="geometry"/>
                </mxCell>
                <mxCell id="7" value="LogStrategy" style="rounded=1;whiteSpace=wrap;html=1;strokeColor=#F3652B;fillColor=#1E1E1E;" parent="1" vertex="1">
                    <mxGeometry x="335" y="400" width="210" height="60" as="geometry"/>
                </mxCell>
                <mxCell id="8" value="Log" style="rounded=1;whiteSpace=wrap;html=1;dashed=1;strokeColor=#F3652B;fillColor=#1E1E1E;" parent="1" vertex="1">
                    <mxGeometry x="380" y="520" width="120" height="60" as="geometry"/>
                </mxCell>
                <mxCell id="14" value="Analytics" style="rounded=1;whiteSpace=wrap;html=1;dashed=1;strokeColor=#F3652B;fillColor=#1E1E1E;" parent="1" vertex="1">
                    <mxGeometry x="490" y="60" width="120" height="60" as="geometry"/>
                </mxCell>
                <mxCell id="15" value="ErrorAnalytics" style="rounded=1;whiteSpace=wrap;html=1;dashed=1;strokeColor=#F3652B;fillColor=#1E1E1E;" parent="1" vertex="1">
                    <mxGeometry x="110" y="60" width="120" height="60" as="geometry"/>
                </mxCell>
                <mxCell id="27" style="edgeStyle=none;html=1;exitX=0.5;exitY=1;exitDx=0;exitDy=0;entryX=0.5;entryY=0;entryDx=0;entryDy=0;" parent="1" source="19" target="14" edge="1">
                    <mxGeometry relative="1" as="geometry"/>
                </mxCell>
                <mxCell id="35" style="edgeStyle=none;html=1;exitX=0.5;exitY=0;exitDx=0;exitDy=0;entryX=0.55;entryY=0.95;entryDx=0;entryDy=0;entryPerimeter=0;" parent="1" source="19" target="33" edge="1">
                    <mxGeometry relative="1" as="geometry"/>
                </mxCell>
                <mxCell id="19" value="MixPanelAdapter" style="rounded=1;whiteSpace=wrap;html=1;strokeColor=#F3652B;fillColor=#1E1E1E;" parent="1" vertex="1">
                    <mxGeometry x="650" y="-110" width="170" height="60" as="geometry"/>
                </mxCell>
                <mxCell id="24" style="edgeStyle=none;html=1;exitX=0.5;exitY=1;exitDx=0;exitDy=0;entryX=0.5;entryY=0;entryDx=0;entryDy=0;" parent="1" source="23" target="15" edge="1">
                    <mxGeometry relative="1" as="geometry"/>
                </mxCell>
                <mxCell id="40" style="edgeStyle=none;html=1;exitX=0.5;exitY=0;exitDx=0;exitDy=0;entryX=0.55;entryY=0.95;entryDx=0;entryDy=0;entryPerimeter=0;" parent="1" source="23" target="31" edge="1">
                    <mxGeometry relative="1" as="geometry"/>
                </mxCell>
                <mxCell id="23" value="DataDogAdapter" style="rounded=1;whiteSpace=wrap;html=1;strokeColor=#F3652B;fillColor=#1E1E1E;" parent="1" vertex="1">
                    <mxGeometry x="-70" y="-110" width="120" height="60" as="geometry"/>
                </mxCell>
                <mxCell id="39" style="edgeStyle=none;html=1;exitX=0.5;exitY=0;exitDx=0;exitDy=0;entryX=0.55;entryY=0.95;entryDx=0;entryDy=0;entryPerimeter=0;" parent="1" source="25" target="38" edge="1">
                    <mxGeometry relative="1" as="geometry"/>
                </mxCell>
                <mxCell id="53" style="edgeStyle=none;html=1;exitX=0.5;exitY=1;exitDx=0;exitDy=0;entryX=1;entryY=0.5;entryDx=0;entryDy=0;" parent="1" source="25" target="14" edge="1">
                    <mxGeometry relative="1" as="geometry"/>
                </mxCell>
                <mxCell id="25" value="GoogleAnalitycsAdapter" style="rounded=1;whiteSpace=wrap;html=1;strokeColor=#F3652B;fillColor=#1E1E1E;" parent="1" vertex="1">
                    <mxGeometry x="840" y="-110" width="170" height="60" as="geometry"/>
                </mxCell>
                <mxCell id="29" style="edgeStyle=none;html=1;exitX=0.5;exitY=1;exitDx=0;exitDy=0;entryX=0.25;entryY=0;entryDx=0;entryDy=0;" parent="1" source="28" target="14" edge="1">
                    <mxGeometry relative="1" as="geometry"/>
                </mxCell>
                <mxCell id="37" style="edgeStyle=none;html=1;exitX=0.5;exitY=0;exitDx=0;exitDy=0;" parent="1" source="28" target="36" edge="1">
                    <mxGeometry relative="1" as="geometry"/>
                </mxCell>
                <mxCell id="28" value="HotjarAdapter" style="rounded=1;whiteSpace=wrap;html=1;strokeColor=#F3652B;fillColor=#1E1E1E;" parent="1" vertex="1">
                    <mxGeometry x="450" y="-110" width="170" height="60" as="geometry"/>
                </mxCell>
                <mxCell id="31" value="DataDog" style="ellipse;shape=cloud;whiteSpace=wrap;html=1;strokeColor=#F3652B;fillColor=#1E1E1E;" parent="1" vertex="1">
                    <mxGeometry x="-130" y="-260" width="180" height="60" as="geometry"/>
                </mxCell>
                <mxCell id="33" value="MixPanel" style="ellipse;shape=cloud;whiteSpace=wrap;html=1;strokeColor=#F3652B;fillColor=#1E1E1E;" parent="1" vertex="1">
                    <mxGeometry x="640" y="-250" width="180" height="60" as="geometry"/>
                </mxCell>
                <mxCell id="36" value="Hotjar" style="ellipse;shape=cloud;whiteSpace=wrap;html=1;strokeColor=#F3652B;fillColor=#1E1E1E;" parent="1" vertex="1">
                    <mxGeometry x="440" y="-260" width="180" height="60" as="geometry"/>
                </mxCell>
                <mxCell id="38" value="GA" style="ellipse;shape=cloud;whiteSpace=wrap;html=1;strokeColor=#F3652B;fillColor=#1E1E1E;" parent="1" vertex="1">
                    <mxGeometry x="850" y="-250" width="180" height="60" as="geometry"/>
                </mxCell>
                <mxCell id="44" style="edgeStyle=none;html=1;exitX=0.25;exitY=1;exitDx=0;exitDy=0;entryX=0.5;entryY=0;entryDx=0;entryDy=0;" parent="1" source="42" target="15" edge="1">
                    <mxGeometry relative="1" as="geometry"/>
                </mxCell>
                <mxCell id="46" style="edgeStyle=none;html=1;exitX=0.75;exitY=1;exitDx=0;exitDy=0;entryX=0;entryY=0.5;entryDx=0;entryDy=0;" parent="1" source="42" target="14" edge="1">
                    <mxGeometry relative="1" as="geometry"/>
                </mxCell>
                <mxCell id="54" style="edgeStyle=none;html=1;exitX=0.5;exitY=0;exitDx=0;exitDy=0;" parent="1" source="42" edge="1">
                    <mxGeometry relative="1" as="geometry">
                        <mxPoint x="280" y="-165" as="targetPoint"/>
                    </mxGeometry>
                </mxCell>
                <mxCell id="42" value="AznAnalytics" style="rounded=1;whiteSpace=wrap;html=1;strokeColor=#F3652B;fillColor=#1E1E1E;" parent="1" vertex="1">
                    <mxGeometry x="190" y="-100" width="180" height="60" as="geometry"/>
                </mxCell>
                <mxCell id="55" value="In &lt;br&gt;Memmory" style="shape=cylinder3;whiteSpace=wrap;html=1;boundedLbl=1;backgroundOutline=1;size=15;fillColor=#1E1E1E;strokeColor=#F3652B;" vertex="1" parent="1">
                    <mxGeometry x="250" y="-270" width="60" height="80" as="geometry"/>
                </mxCell>
            </root>
        </mxGraphModel>
    </diagram>
</mxfile>